<?xml version="1.0" standalone="no"?>
<!DOCTYPE svg PUBLIC "-//W3C//DTD SVG 1.1//EN" "http://www.w3.org/Graphics/SVG/1.1/DTD/svg11.dtd" >
<svg xmlns="http://www.w3.org/2000/svg">
<metadata></metadata>
<defs>
<font id="carbon_blockregular" horiz-adv-x="404" >
<font-face units-per-em="1000" ascent="800" descent="-200" />
<missing-glyph horiz-adv-x="210" />
<glyph unicode=" "  horiz-adv-x="210" />
<glyph unicode="&#x09;" horiz-adv-x="210" />
<glyph unicode="&#xa0;" horiz-adv-x="210" />
<glyph unicode="!" horiz-adv-x="183" d="M159 127h-132v457h132v-457zM159 0h-132v94h132v-94z" />
<glyph unicode="&#x22;" horiz-adv-x="243" d="M215 364h-72v220h72v-220zM99 364h-72v220h72v-220z" />
<glyph unicode="#" horiz-adv-x="415" d="M405 513l-16 -31h-81l-25 -44h85l-17 -31h-84l-43 -76h-53l43 76h-69l-43 -76h-53l43 76h-82l17 31h81l25 44h-87l17 31h87l43 77h52l-42 -77h69l43 77h52l-42 -77h80zM256 482h-70l-25 -45h70z" />
<glyph unicode="$" horiz-adv-x="402" d="M387 441q0 -8 -0.5 -19t-1.5 -26q-1 -14 -1.5 -25t-0.5 -19h-136v113q0 19 -11 33.5t-29 14.5q-44 0 -44 -65q0 -47 57 -99q26 -23 53 -47t53 -47q57 -59 57 -118q0 -71 -43 -102q-31 -25 -110 -34v-84h-59v84q-78 8 -114 35q-43 33 -43 105q0 8 0.5 19t1.5 26t1.5 26 t0.5 18h138q-1 -6 -1.5 -15.5t-2.5 -22.5q-1 -13 -1.5 -23t-0.5 -17q0 -81 47 -81q44 0 44 45q0 5 -1 14.5t-1 13.5q0 40 -57 91q-26 23 -53 47t-53 47q-58 61 -58 123q0 115 153 129v66h59v-66q81 -8 114 -35q43 -33 43 -105z" />
<glyph unicode="%" horiz-adv-x="700" d="M682 184q0 -17 -3 -48q-3 -32 -3 -48q0 -101 -138 -101q-142 0 -142 126q0 16 3 48q3 31 3 48q0 100 136 100q144 0 144 -125zM540 595l-313 -608h-68l312 608h69zM305 469q0 -17 -3 -48q-3 -32 -3 -48q0 -101 -138 -101q-143 0 -143 128q0 14 3 46q3 31 3 48 q0 101 137 101q144 0 144 -126zM568 230q0 28 -31 28t-31 -28v-165q0 -27 31 -27t31 27v165zM192 351v166q0 27 -31 27t-31 -27v-166q0 -27 31 -27t31 27z" />
<glyph unicode="&#x26;" horiz-adv-x="406" d="M23 126v18v11q0 9 1 14q1 14 1.5 25t0.5 18q0 45 32 62q22 13 74 17q-106 9 -106 91v102q0 58 62 90q49 25 115 25q67 0 116 -25q64 -31 64 -90v-113h-139v120q0 35 -41 35q-39 0 -39 -74v-78q0 -52 77 -52h3v-66h-10q-35 0 -48 -7q-22 -10 -22 -42v-111q0 -37 40 -37 t40 37v116h139v-113q0 -112 -180 -112q-89 0 -130 26q-50 32 -50 113z" />
<glyph unicode="'" horiz-adv-x="129" d="M99 364h-72v220h72v-220z" />
<glyph unicode="(" horiz-adv-x="280" d="M156 -172q-120 203 -120 432q0 230 120 432h86q-66 -90 -99 -199t-33 -233q0 -222 134 -432h-88z" />
<glyph unicode=")" horiz-adv-x="278" d="M35 -172q36 56 61 107t41.5 102.5t23.5 106t7 116.5q0 129 -33 231.5t-100 200.5h86q61 -102 90.5 -208.5t29.5 -223.5q0 -116 -29.5 -223t-90.5 -209h-86z" />
<glyph unicode="*" horiz-adv-x="246" d="M233 466l-67 -20l41 -53l-45 -33l-40 53l-40 -53l-47 31l43 55l-66 20l18 52l66 -21l-1 67h57l-1 -67l65 21z" />
<glyph unicode="+" horiz-adv-x="255" d="M249 214h-94v-98h-55v98h-94v54h94v98h55v-98h94v-54z" />
<glyph unicode="," horiz-adv-x="199" d="M191 88l-95 -192h-79l44 192h130z" />
<glyph unicode="-" horiz-adv-x="220" d="M192 202h-165v62h165v-62z" />
<glyph unicode="." horiz-adv-x="182" d="M153 0h-126v92h126v-92z" />
<glyph unicode="/" horiz-adv-x="454" d="M452 595l-361 -670h-88l359 670h90z" />
<glyph unicode="0" horiz-adv-x="411" d="M385 99q0 -59 -64 -90q-49 -25 -116 -25t-116 25q-64 31 -64 90v388q0 59 64 90q49 24 116 24q66 0 116 -24q64 -31 64 -90v-388zM246 96v398q0 36 -41 36q-40 0 -40 -36v-398q0 -37 40 -37q41 0 41 37z" />
<glyph unicode="1" horiz-adv-x="255" d="M228 0h-141v468q0 51 -46 51h-30v65h112q105 0 105 -128v-456z" />
<glyph unicode="2" horiz-adv-x="403" d="M383 0h-359v156q0 49 57 102l106 83q61 51 61 78v71q0 38 -46 38q-40 0 -40 -36v-123h-138v87q0 145 178 145q181 0 181 -112v-89q0 -46 -58 -95l-106 -82q-57 -50 -57 -96v-58h221v-69z" />
<glyph unicode="3" d="M380 123q0 -139 -177 -139q-180 0 -180 112v116h139v-119q0 -37 40 -37t40 37v114q0 32 -22 42q-13 7 -48 7h-10v66h10q70 0 70 52l1 80q0 74 -40 74q-41 0 -41 -35v-122h-139v115q0 113 180 115q177 -2 177 -115v-104q0 -82 -106 -91q52 -4 74 -17q32 -17 32 -62v-89z " />
<glyph unicode="4" horiz-adv-x="401" d="M373 0h-140v145h-227v65l176 374h191v-584zM239 216v292l-113 -292h113z" />
<glyph unicode="5" horiz-adv-x="405" d="M384 99q0 -112 -181 -112q-178 0 -178 144v96h138v-131q0 -36 40 -36q46 0 46 50l1 135q0 48 -54 48h-171v291h341v-69h-203v-148h81q138 0 140 -92v-176z" />
<glyph unicode="6" horiz-adv-x="395" d="M384 133q0 -149 -177 -149q-181 0 -181 149v451h140v-201q8 1 15 1.5t14 0.5q189 0 189 -132v-120zM252 133v127q0 53 -86 53v-219q0 -34 41 -34q45 0 45 73z" />
<glyph unicode="7" horiz-adv-x="408" d="M398 511l-199 -511h-150l210 513h-243v71h382v-73z" />
<glyph unicode="8" horiz-adv-x="408" d="M384 186v-90q0 -112 -180 -112t-180 112v91q0 93 104 116q-104 17 -104 104v83q0 111 180 111t180 -111v-70q0 -100 -113 -117q113 -14 113 -117zM245 379v118q0 36 -41 36q-40 0 -40 -36v-118q0 -37 40 -37q41 0 41 37zM245 93v134q0 38 -41 38q-40 0 -40 -38v-134 q0 -37 40 -37q41 0 41 37z" />
<glyph unicode="9" horiz-adv-x="394" d="M10 435q0 149 177 149q181 0 181 -149v-451h-140v211q-8 -1 -15 -1.5t-14 -0.5q-189 0 -189 132v110zM142 435v-117q0 -53 86 -53v209q0 34 -41 34q-45 0 -45 -73z" />
<glyph unicode=":" horiz-adv-x="159" d="M153 370h-126v92h126v-92zM153 0h-126v92h126v-92z" />
<glyph unicode=";" horiz-adv-x="203" d="M178 370h-126v92h126v-92zM191 88l-96 -192h-79l44 192h131z" />
<glyph unicode="&#x3c;" horiz-adv-x="389" d="M374 171l-372 96v31l372 97v-37l-295 -75l295 -76v-36z" />
<glyph unicode="=" horiz-adv-x="407" d="M396 290h-369v66h369v-66zM396 127h-369v66h369v-66z" />
<glyph unicode="&#x3e;" horiz-adv-x="401" d="M399 267l-372 -96v36l295 76l-295 75v37l372 -97v-31z" />
<glyph unicode="?" horiz-adv-x="338" d="M323 424q1 -45 -12 -73l-42 -62q-43 -58 -43 -122v-40h-125v86q0 44 48 103q48 58 48 87v113q0 27 -28 27q-29 0 -29 -27v-146h-126v138q0 93 154 93q155 0 155 -93v-84zM226 0h-125v94h125v-94z" />
<glyph unicode="@" horiz-adv-x="508" d="M186 239v70q0 88 151 89h49v91q0 37 -130 37q-150 0 -150 -37v-426h380v-63h-460v486q0 115 230 115t230 -115v-232q0 -111 -150 -111t-150 96zM266 307v-70q0 -36 71 -36q49 0 49 36v103h-50q-70 0 -70 -33z" />
<glyph unicode="A" horiz-adv-x="414" d="M387 1h-139v230h-82v-230h-140v486q0 59 64 90q51 24 117 24q65 0 116 -24q64 -31 64 -90v-486zM248 307v183q0 37 -41 37t-41 -37v-183h82z" />
<glyph unicode="B" horiz-adv-x="407" d="M383 123q0 -139 -177 -139q-181 0 -181 112v391q0 114 181 114q177 0 177 -114v-85q0 -84 -106 -91q106 -10 106 -79v-109zM251 456q0 73 -45 73q-41 0 -41 -35v-152h4q81 0 81 52zM244 93v134q0 31 -21 42q-13 7 -48 7h-10v-183q0 -37 40 -37q39 0 39 37z" />
<glyph unicode="C" horiz-adv-x="408" d="M385 459v-91h-140v129q0 36 -40 36t-40 -36v-401q0 -37 40 -37t40 37v131h140v-128q0 -115 -180 -115t-180 115v391q0 111 180 111t180 -142z" />
<glyph unicode="D" horiz-adv-x="413" d="M388 137q0 -137 -186 -137h-175v584h176q185 0 185 -138v-309zM248 109v369q0 38 -63 38h-19v-445h19q63 0 63 38z" />
<glyph unicode="E" horiz-adv-x="358" d="M335 0h-308v583h308v-79h-169v-147h165v-77h-165v-200h169v-80z" />
<glyph unicode="F" horiz-adv-x="342" d="M335 504h-169v-147h165v-77h-165v-280h-139v583h308v-79z" />
<glyph unicode="G" horiz-adv-x="411" d="M386 0h-73l-12 36q-47 -54 -126 -54q-58 0 -101 30q-49 34 -49 89v386q0 58 65 90q49 24 116 24q65 0 116 -24q64 -31 64 -90v-119h-139v126q0 36 -41 36t-41 -36v-398q0 -37 41 -37t41 37v127h-60v73h199v-296z" />
<glyph unicode="H" horiz-adv-x="412" d="M384 0h-139v280h-79v-280h-139v584h139v-223h79v223h139v-584z" />
<glyph unicode="I" horiz-adv-x="194" d="M166 0h-139v584h139v-584z" />
<glyph unicode="J" horiz-adv-x="398" d="M371 99q0 -112 -181 -112q-90 0 -132 27q-52 33 -52 115v98h144v-131q0 -37 40 -37q41 0 41 37v488h140v-485z" />
<glyph unicode="K" horiz-adv-x="437" d="M414 0h-147l-101 294v-294h-139v584h139v-259l113 259h135l-115 -267z" />
<glyph unicode="L" horiz-adv-x="341" d="M335 0h-308v584h139v-504h169v-80z" />
<glyph unicode="M" horiz-adv-x="635" d="M608 0h-139v487q0 37 -42 37q-40 0 -40 -40v-484h-140v492q0 14 -13 23t-27 9q-41 0 -41 -37v-487h-140v484q0 57 63 90q51 27 114 27q70 0 114 -33q48 33 117 33q62 0 113 -27q61 -33 61 -90v-484z" />
<glyph unicode="N" horiz-adv-x="414" d="M387 0h-139v490q0 37 -41 37t-41 -37v-490h-140v487q0 59 64 90q51 24 117 24q65 0 116 -24q64 -31 64 -90v-487z" />
<glyph unicode="O" horiz-adv-x="412" d="M386 99q0 -59 -64 -90q-49 -25 -116 -25t-116 25q-65 32 -65 90v388q0 58 65 90q49 24 116 24q65 0 116 -24q64 -31 64 -90v-388zM247 96v398q0 36 -41 36t-41 -36v-398q0 -37 41 -37t41 37z" />
<glyph unicode="P" horiz-adv-x="395" d="M384 332q0 -24 -17 -53q-48 -79 -172 -79h-14q-12 0 -15 1v-201h-140v487q0 58 65 90q49 24 116 24q64 0 114 -24q63 -32 63 -90v-155zM252 456q0 73 -45 73q-41 0 -41 -35v-222h2h2q82 0 82 52v132z" />
<glyph unicode="Q" horiz-adv-x="416" d="M392 -70h-11h-7q-6 0 -9 -1h-27q-41 0 -63 8q-29 12 -33 51q-3 -1 -13 -1h-12q-79 0 -127 17q-68 26 -68 95v390q0 111 181 111q180 0 180 -111v-390q0 -76 -69 -101h78v-68zM244 96v400q0 36 -41 36t-41 -36v-400q0 -37 41 -37t41 37z" />
<glyph unicode="R" horiz-adv-x="410" d="M384 1h-139v206q0 49 -69 49h-10v-255h-140v486q0 59 64 90q51 24 116 24t115 -24q63 -32 63 -90v-105q0 -84 -106 -91q106 -9 106 -84v-206zM252 382v74q0 73 -45 73q-41 0 -41 -35v-172h1q85 0 85 60z" />
<glyph unicode="S" horiz-adv-x="412" d="M389 459v-71h-136v66q0 78 -48 78q-42 0 -42 -43v-34q0 -52 59 -102l106 -82q57 -50 57 -95v-80q0 -112 -180 -112q-183 0 -183 145v78h143v-114q0 -36 40 -36q46 0 46 50v46q0 33 -61 82l-106 83q-57 52 -57 102v70q0 111 178 111q90 0 132 -27q52 -33 52 -115z" />
<glyph unicode="T" horiz-adv-x="405" d="M392 509h-120v-509h-139v509h-121v75h380v-75z" />
<glyph unicode="U" horiz-adv-x="413" d="M387 99q0 -59 -64 -90q-49 -25 -116 -25t-116 25q-65 32 -65 90v485h140v-488q0 -37 41 -37t41 37v488h139v-485z" />
<glyph unicode="V" horiz-adv-x="455" d="M439 584l-114 -584h-200l-109 584h140l73 -476l75 476h135z" />
<glyph unicode="W" horiz-adv-x="635" d="M608 102q0 -58 -61 -91q-50 -27 -113 -27q-69 0 -117 33q-44 -33 -114 -33q-62 0 -114 27q-63 33 -63 91v482h140v-486q0 -37 41 -37q14 0 27 9t13 23v491h140v-482q0 -41 40 -41q42 0 42 37v486h139v-482z" />
<glyph unicode="X" horiz-adv-x="415" d="M388 0h-140v228q0 37 -41 37q-40 0 -40 -37v-228h-140v225q0 46 44 78q-44 30 -44 78v203h140v-206q0 -37 40 -37q41 0 41 37v206h140v-203q0 -47 -45 -78q45 -32 45 -78v-225z" />
<glyph unicode="Y" horiz-adv-x="447" d="M435 584l-143 -365v-219h-143v219l-137 365h137l78 -255l77 255h131z" />
<glyph unicode="Z" horiz-adv-x="360" d="M336 0h-313v68l164 441h-160v75h309v-69l-162 -440h162v-75z" />
<glyph unicode="[" horiz-adv-x="269" d="M255 -70h-228v654h228v-61h-107v-534h107v-59z" />
<glyph unicode="\" horiz-adv-x="455" d="M452 -75h-88l-362 670h91z" />
<glyph unicode="]" horiz-adv-x="270" d="M242 -70h-228v59h107v534h-107v61h228v-654z" />
<glyph unicode="^" horiz-adv-x="1414" d="M62 293h1v47h67v28h-18v88h18v31h-18v37h439v-46q-7 13 -24 13q-46 0 -46 -77q0 -76 48 -76q15 0 31 19v-17h24v184h374v-26h34v26h360v-524h-1290v293zM938 340v94q0 54 -47 54q-24 0 -31 -24q-9 24 -28 24q-17 0 -27 -24v23h-32v-119h-19v-28h70v28h-19v61q0 23 19 23 q15 0 15 -23v-89h51v28h-19v61q0 22 19 22q15 0 15 -22v-89h33zM986 267h-56v-189h32v122h3l9 -122h58v189h-32v-122h-3zM480 267v-189h79l11 21v62l-8 14v3l8 14v55l-11 20h-79zM826 247v-148l10 -21h67l12 21v148l-11 20h-68zM271 267v-189h38v83h11v-83h41v76l-15 21v3 l15 20v49l-11 20h-79zM256 293h33v56q7 -12 24 -12q46 0 46 76t-48 76q-14 0 -31 -20v18h-24v-194zM475 412q0 78 -55 78q-54 0 -54 -78q0 -76 54 -76q55 0 55 76zM1184 209h38v38l-10 20h-66l-11 -20v-66l12 -20l37 -9v-38h-10v28h-39v-43l11 -21h65l11 21v72l-13 21l-35 8 v33h10v-24zM256 78v69l-26 120h-41l-23 -120v-69h37v36h13v-36h40zM464 78v69l-24 120h-41l-23 -120v-69h38v36h12v-36h38zM169 293h21q55 6 55 71v123h-33v-91q0 -26 -20 -26q-19 0 -19 26v91h-32v-85q0 -64 46 -64q14 0 25 8q0 -23 -28 -23h-15v-30zM678 159h26v33h-26v35 h26v40h-64v-189h64v42h-26v39zM786 156h24v33h-24v38h24v40h-63v-189h39v78zM1064 227v-149h39v149h21v40h-81v-40h21zM685 487h-15v-23q-11 26 -33 26q-43 0 -43 -43q0 -27 22 -36q-23 -9 -23 -33q1 -42 45 -42q22 0 34.5 13t12.5 40h-15q-3 -19 -25 -19q-20 0 -20 14 q0 18 20 18h10v18h-10q-20 0 -20 17q0 16 20 16q17 0 25 -20h15v54zM1096 485h-16v-21q-12 26 -30 26q-50 0 -50 -78q0 -75 51 -75q36 0 45 58h-16q-3 -23 -25 -23q-23 0 -23 40q0 41 23 41t25 -27h16v59zM151 120h-22v147h-38v-189h60v42zM625 78v189h-39v-189h39zM740 368 h-14v65q0 20 14 20q6 0 12 -6l11 33q-8 7 -17 8q-21 0 -31 -24v23h-19v-147h44v28zM943 487v-31h15v-116h34v147h-49zM286 437q6 15 21 15q21 0 21 -38q0 -43 -22 -43q-14 0 -20 16v50zM442 412q0 -40 -22 -40q-21 0 -21 40q0 41 21 41q22 0 22 -41zM553 389q-6 -14 -20 -14 q-21 0 -21 38q0 43 22 43q13 0 19 -16v-51zM63 368v88h19v-88h-19zM864 114v119h11v-119h-11zM63 487v37h19v-37h-19zM203 142v19l6 50h2l5 -50v-19h-13zM414 142v19l5 50h3l4 -50v-19h-12zM519 161h11v-47h-11v47zM519 192v41h11v-41h-11zM309 192v41h11v-41h-11z" />
<glyph unicode="_" horiz-adv-x="702" d="M675 -191h-648v68h648v-68z" />
<glyph unicode="`" horiz-adv-x="188" d="M170 621h-75l-88 88h117z" />
<glyph unicode="a" horiz-adv-x="414" d="M387 0h-139v231h-82v-231h-140v487q0 59 64 90q51 24 117 24q65 0 116 -24q64 -31 64 -90v-487zM248 307v183q0 37 -41 37t-41 -37v-183h82z" />
<glyph unicode="b" horiz-adv-x="407" d="M383 123q0 -139 -177 -139q-181 0 -181 112v391q0 114 181 114q177 0 177 -114v-85q0 -84 -106 -91q106 -10 106 -79v-109zM251 456q0 73 -45 73q-41 0 -41 -35v-152h4q81 0 81 52zM244 93v134q0 31 -21 42q-13 7 -48 7h-10v-183q0 -37 40 -37q39 0 39 37z" />
<glyph unicode="c" horiz-adv-x="408" d="M385 459v-91h-140v129q0 36 -40 36t-40 -36v-401q0 -37 40 -37t40 37v131h140v-128q0 -115 -180 -115t-180 115v391q0 111 180 111t180 -142z" />
<glyph unicode="d" horiz-adv-x="413" d="M388 127q0 -127 -176 -127h-185v584h186q175 0 175 -128v-329zM248 109v369q0 38 -63 38h-19v-445h19q63 0 63 38z" />
<glyph unicode="e" horiz-adv-x="358" d="M335 0h-308v583h308v-79h-169v-147h165v-77h-165v-200h169v-80z" />
<glyph unicode="f" horiz-adv-x="342" d="M335 504h-169v-147h165v-77h-165v-280h-139v583h308v-79z" />
<glyph unicode="g" horiz-adv-x="411" d="M386 0h-73l-12 36q-47 -54 -126 -54q-58 0 -101 30q-49 34 -49 89v386q0 58 65 90q49 24 116 24q65 0 116 -24q64 -31 64 -90v-119h-139v126q0 36 -41 36t-41 -36v-398q0 -37 41 -37t41 37v127h-60v73h199v-296z" />
<glyph unicode="h" horiz-adv-x="412" d="M384 0h-139v280h-79v-280h-139v584h139v-223h79v223h139v-584z" />
<glyph unicode="i" horiz-adv-x="194" d="M166 0h-139v584h139v-584z" />
<glyph unicode="j" horiz-adv-x="398" d="M371 99q0 -112 -181 -112q-90 0 -132 27q-52 33 -52 115v98h144v-131q0 -37 40 -37q41 0 41 37v488h140v-485z" />
<glyph unicode="k" horiz-adv-x="437" d="M414 0h-147l-101 294v-294h-139v584h139v-259l113 259h135l-115 -267z" />
<glyph unicode="l" horiz-adv-x="341" d="M335 0h-308v584h139v-504h169v-80z" />
<glyph unicode="m" horiz-adv-x="635" d="M608 0h-139v487q0 37 -42 37q-40 0 -40 -40v-484h-140v492q0 14 -13 23t-27 9q-41 0 -41 -37v-487h-140v484q0 57 63 90q51 27 114 27q70 0 114 -33q46 33 117 33q62 0 113 -27q61 -33 61 -90v-484z" />
<glyph unicode="n" horiz-adv-x="414" d="M387 0h-139v490q0 37 -41 37t-41 -37v-490h-140v487q0 59 64 90q51 24 117 24q65 0 116 -24q64 -31 64 -90v-487z" />
<glyph unicode="o" horiz-adv-x="412" d="M386 99q0 -59 -64 -90q-49 -25 -116 -25t-116 25q-65 32 -65 90v388q0 58 65 90q49 24 116 24q65 0 116 -24q64 -31 64 -90v-388zM247 96v398q0 36 -41 36t-41 -36v-398q0 -37 41 -37t41 37z" />
<glyph unicode="p" horiz-adv-x="395" d="M384 332q0 -24 -17 -53q-48 -79 -172 -79h-14q-12 0 -15 1v-201h-140v487q0 58 65 90q49 24 116 24q64 0 114 -24q63 -32 63 -90v-155zM252 456q0 73 -45 73q-41 0 -41 -35v-222h2h2q82 0 82 52v132z" />
<glyph unicode="q" horiz-adv-x="416" d="M392 -70h-11h-7q-6 0 -9 -1h-27q-41 0 -63 8q-29 12 -33 51q-3 -1 -13 -1h-12q-79 0 -127 17q-68 26 -68 95v390q0 111 181 111q180 0 180 -111v-390q0 -76 -69 -101h78v-68zM244 96v400q0 36 -41 36t-41 -36v-400q0 -37 41 -37t41 37z" />
<glyph unicode="r" horiz-adv-x="410" d="M384 0h-139v207q0 49 -69 49h-10v-256h-140v487q0 59 64 90q51 24 116 24t115 -24q63 -32 63 -90v-105q0 -84 -106 -91q106 -9 106 -84v-207zM252 382v74q0 73 -45 73q-41 0 -41 -35v-172h1q85 0 85 60z" />
<glyph unicode="s" horiz-adv-x="412" d="M389 459v-71h-136v66q0 78 -48 78q-42 0 -42 -43v-40q0 -46 59 -96l106 -82q57 -50 57 -95v-80q0 -112 -180 -112q-183 0 -183 145v78h143v-114q0 -36 40 -36q46 0 46 50v46q0 33 -61 82l-106 83q-57 52 -57 102v70q0 111 178 111q90 0 132 -27q52 -33 52 -115z" />
<glyph unicode="t" horiz-adv-x="408" d="M165 584v-130h184v-77h-184v-281q0 -37 40 -37t40 37v131h140v-128q0 -115 -180 -115t-180 115v485h140z" />
<glyph unicode="u" horiz-adv-x="413" d="M387 99q0 -59 -64 -90q-49 -25 -116 -25t-116 25q-65 32 -65 90v485h140v-488q0 -37 41 -37t41 37v488h139v-485z" />
<glyph unicode="v" horiz-adv-x="455" d="M439 584l-114 -584h-200l-109 584h140l73 -476l75 476h135z" />
<glyph unicode="w" horiz-adv-x="635" d="M608 100q0 -58 -61 -91q-51 -27 -113 -27q-71 0 -117 33q-44 -33 -114 -33q-63 0 -114 27q-63 33 -63 91v484h140v-488q0 -37 41 -37q14 0 27 9t13 23v493h140v-484q0 -41 40 -41q42 0 42 37v488h139v-484z" />
<glyph unicode="x" horiz-adv-x="415" d="M388 0h-140v228q0 37 -41 37q-40 0 -40 -37v-228h-140v225q0 46 44 78q-44 30 -44 78v203h140v-206q0 -37 40 -37q41 0 41 37v206h140v-203q0 -47 -45 -78q45 -32 45 -78v-225z" />
<glyph unicode="y" horiz-adv-x="447" d="M435 584l-143 -365v-219h-143v219l-137 365h137l78 -255l77 255h131z" />
<glyph unicode="z" horiz-adv-x="360" d="M336 0h-313v68l164 441h-160v75h309v-69l-162 -440h162v-75z" />
<glyph unicode="{" horiz-adv-x="250" d="M230 -164h-25q-66 0 -90.5 27.5t-24.5 94.5v22v15q0 10 1 15q1 17 1.5 30.5t0.5 22.5q0 112 -79 112h-10v71q5 -1 9.5 -1.5t9.5 -0.5q70 0 70 109q0 8 -0.5 21.5t-1.5 30.5q-1 5 -1 15v15v23q0 34 5.5 58t18.5 39.5t35.5 22.5t55.5 7h10h6q6 0 9 -1v-71q-2 1 -8 1h-6 q-63 0 -63 -87q0 -8 0.5 -20t1.5 -29q1 -16 1.5 -28.5t0.5 -20.5q0 -99 -65 -119q65 -20 65 -117q0 -8 -0.5 -20t-1.5 -29q-1 -16 -1.5 -28.5t-0.5 -20.5q0 -89 68 -89h9v-70z" />
<glyph unicode="|" horiz-adv-x="168" d="M139 -191h-112v810h112v-810z" />
<glyph unicode="}" horiz-adv-x="268" d="M247 175q-2 1 -15 1q-74 0 -74 -109q0 -9 0.5 -22.5t1.5 -31.5q1 -17 1.5 -30.5t0.5 -22.5q0 -67 -24 -94q-26 -30 -92 -30h-24v70q2 -1 13 -1q63 0 63 87q0 8 -0.5 20.5t-1.5 28.5t-1.5 28t-0.5 20q0 101 66 121q-66 19 -66 118q0 8 0.5 20.5t1.5 29.5t1.5 30t0.5 21 q0 85 -63 85q-11 0 -13 -1v71h23q33 0 55.5 -6.5t36 -21t19 -38.5t5.5 -58q0 -8 -0.5 -21.5t-1.5 -30.5q-1 -4 -1 -8v-8v-14v-21q0 -112 76 -112q11 0 13 1v-71z" />
<glyph unicode="~" horiz-adv-x="132" d="M113 543l-19 -19h-28l-9 11l-8 -11h-22l19 19h23l11 -11l11 11h22z" />
<glyph unicode="&#xa1;" horiz-adv-x="187" d="M159 -198h-132v456h132v-456zM159 291h-132v95h132v-95z" />
<glyph unicode="&#xa2;" horiz-adv-x="390" d="M225 594q152 -11 152 -141v-85h-140v123q0 36 -40 36t-40 -36v-395q0 -37 40 -37t40 37v131h140v-128q0 -105 -152 -114v-99h-54v99q-154 7 -154 114v385q0 103 154 110v94h54v-94z" />
<glyph unicode="&#xa3;" horiz-adv-x="435" d="M289 241h-99v-161h222v-80h-362v241h-30v57h30v186q0 111 180 111q90 0 132 -27q51 -33 51 -115v-85h-143v123q0 36 -40 36t-40 -36v-193h99v-57z" />
<glyph unicode="&#xa4;" horiz-adv-x="446" d="M17 266h48v40h-48v61h48v122q0 111 180 111q120 0 164 -63l-75 -141h-49v100q0 36 -40 36t-40 -36v-129h114l-32 -61h-82v-40h61l-32 -61h-29v-109q0 -37 40 -37t40 37v62h140v-59q0 -115 -180 -115t-180 115v106h-48v61z" />
<glyph unicode="&#xa5;" horiz-adv-x="431" d="M461 584l-143 -365v-219h-143v219l-137 365h137l78 -255l77 255h131zM392.763 188.622h-311.006v41.79h311.006v-41.79zM392.763 85.4141h-311.006v41.7891h311.006v-41.7891z" />
<glyph unicode="&#xa8;" horiz-adv-x="271" d="M247 673q0 -16 -13 -26t-29 -10q-17 0 -30 10t-13 26t13 26t30 10q16 0 29 -10t13 -26zM109 673q0 -16 -12.5 -26t-29.5 -10t-30 10t-13 26t13 26t30 10q16 0 29 -10t13 -26z" />
<glyph unicode="&#xa9;" horiz-adv-x="443" d="M382 467q0 21 -12 38q-17 23 -45 35.5t-60 17t-64 1.5t-57 -10q-15 -4 -30 -11t-26.5 -17.5t-19 -24t-7.5 -31.5v-343q0 -11 2.5 -22t9.5 -20q15 -20 43 -33t61 -19t68.5 -3.5t64.5 14t49 32t23 50.5v346zM422 116q-3 -39 -26 -66t-57.5 -43t-76.5 -21t-82.5 0.5 t-75.5 20.5t-56 40q-27 31 -27 74v346q0 22 8.5 40.5t22.5 33.5t32.5 26t38.5 18q32 10 69 13.5t73 -1t69.5 -18.5t58.5 -39q29 -29 29 -72v-346v-6zM319 387v-52h-74v74q0 21 -21 21t-21 -21v-232q0 -22 21 -22t21 22v76h74v-75q0 -66 -95 -66q-96 0 -96 66v227q0 65 96 65 q95 0 95 -83z" />
<glyph unicode="&#xab;" horiz-adv-x="374" d="M95 302l102 -48v-60l-156 77v59l156 81v-62zM243 302l102 -48v-60l-156 77v59l156 81v-62z" />
<glyph unicode="&#xae;" horiz-adv-x="443" d="M382 466q0 21 -12 38q-17 23 -45 35.5t-60 17t-64 1.5t-57 -10q-15 -4 -30 -11t-26.5 -17.5t-19 -24t-7.5 -31.5v-342q0 -11 2.5 -22t9.5 -20q15 -20 43 -33t61 -19t68.5 -3.5t64.5 14t49 32t23 50.5v345zM422 116q-3 -39 -26 -66t-57.5 -43t-76.5 -21t-82.5 0.5 t-75.5 20.5t-56 40q-27 31 -27 74v345q0 22 8.5 40.5t22.5 33.5t32.5 26t38.5 18q32 10 69 13.5t73 -1t69.5 -18.5t58.5 -39q29 -29 29 -72v-345v-6zM332 122h-84v124q0 29 -42 29h-6v-153h-84v292q0 36 38 54q31 15 70 15q40 0 70 -15q38 -19 38 -54v-63q0 -51 -64 -55 q64 -5 64 -50v-124zM252 351v44q0 44 -27 44q-25 0 -25 -21v-103h1q51 0 51 36z" />
<glyph unicode="&#xb4;" horiz-adv-x="189" d="M181 709l-88 -88h-76l46 88h118z" />
<glyph unicode="&#xb8;" horiz-adv-x="146" d="M130 -66q0 -33 -26 -52.5t-59 -19.5q-16 0 -37 3v17q7 -1 12 -1.5t7 -0.5q18 0 33 12.5t15 31.5q0 29 -34 29q-7 0 -8 -1l44 71h23l-19 -32q49 -10 49 -57z" />
<glyph unicode="&#xbb;" horiz-adv-x="386" d="M302 304l-102 47v60l156 -77v-59l-156 -81v62zM154 304l-102 47v60l156 -77v-59l-156 -81v62z" />
<glyph unicode="&#xbf;" horiz-adv-x="339" d="M14 -47q0 48 13 73q7 21 42 62q45 55 45 120q0 6 -0.5 15.5t-0.5 19.5q0 11 -0.5 21t-0.5 16h125v-116q0 -46 -49 -104q-48 -59 -48 -86v-80q0 -27 29 -27q28 0 28 27v143h127v-135q0 -47 -56 -73q-48 -20 -98 -20q-51 0 -99 20q-57 25 -57 73v51zM112 407h125v-94h-125 v94z" />
<glyph unicode="&#xc0;" horiz-adv-x="402" d="M381 1h-139v230h-82v-230h-140v485q0 59 64 90q51 24 117 24q65 0 116 -24q64 -31 64 -90v-485zM242 307v182q0 37 -41 37t-41 -37v-182h82zM242 621h-75l-88 88h117z" />
<glyph unicode="&#xc1;" horiz-adv-x="403" d="M382 1h-139v230h-82v-230h-140v485q0 59 64 90q51 24 117 24q65 0 116 -24q64 -31 64 -90v-485zM243 307v182q0 37 -41 37t-41 -37v-182h82zM297 709l-88 -88h-76l46 88h118z" />
<glyph unicode="&#xc2;" horiz-adv-x="405" d="M382 1h-139v230h-82v-230h-140v485q0 59 64 90q51 24 117 24q65 0 116 -24q64 -31 64 -90v-485zM243 307v182q0 37 -41 37t-41 -37v-182h82zM331 622h-88l-44 52l-43 -52h-87l78 92h105z" />
<glyph unicode="&#xc3;" horiz-adv-x="406" d="M383 1h-139v230h-82v-230h-140v485q0 59 64 90q51 24 117 24q65 0 116 -24q64 -31 64 -90v-485zM244 307v182q0 37 -41 37t-41 -37v-182h82zM320 717q0 -53 -37 -72q-18 -9 -36 -9q-28 0 -70 21q-40 22 -55 22q-20 0 -27 -15q-3 -5 -9 -27h-13q3 80 73 80q29 0 69 -22 q40 -21 57 -21q27 0 36 43h12z" />
<glyph unicode="&#xc4;" horiz-adv-x="405" d="M383 1h-139v230h-82v-230h-140v485q0 59 64 90q51 24 117 24q65 0 116 -24q64 -31 64 -90v-485zM244 307v182q0 37 -41 37t-41 -37v-182h82zM313 673q0 -16 -13 -26t-29 -10q-17 0 -30 10t-13 26t13 26t30 10q16 0 29 -10t13 -26zM175 673q0 -16 -12.5 -26t-29.5 -10 t-30 10t-13 26t13 26t30 10q16 0 29 -10t13 -26z" />
<glyph unicode="&#xc5;" horiz-adv-x="402" d="M381 1h-139v230h-82v-230h-140v485q0 59 64 90q51 24 117 24q65 0 116 -24q64 -31 64 -90v-485zM242 307v182q0 37 -41 37t-41 -37v-182h82zM278 692q0 -30 -23 -50t-53 -20q-31 0 -53.5 20t-22.5 50t22.5 50t53.5 20q30 0 53 -20t23 -50zM250 692q0 19 -14.5 31.5 t-33.5 12.5q-20 0 -34.5 -12.5t-14.5 -31.5t14.5 -32t34.5 -13q19 0 33.5 13t14.5 32z" />
<glyph unicode="&#xc6;" horiz-adv-x="579" d="M556 0h-308v1h-1v260h-81v-260h-140v485q0 59 64 90q51 24 116 24q51 0 99 -17h251v-79h-169v-167h165v-77h-165v-180h169v-80zM247 337v152q0 37 -41 37q-40 0 -40 -37v-152h81z" />
<glyph unicode="&#xc7;" horiz-adv-x="396" d="M264 -66q0 -33 -26 -52.5t-59 -19.5q-16 0 -37 3v17q37 -2 52 10.5t15 31.5q0 29 -42 28l20 32q-62 3 -104 25q-64 31 -64 90v385q0 111 181 111q179 0 179 -142v-85h-140v123q0 36 -40 36t-40 -36v-395q0 -37 40 -37t40 37v131h140v-128q0 -59 -64 -90 q-20 -10 -40.5 -15.5t-42.5 -7.5q32 -15 32 -52z" />
<glyph unicode="&#xc8;" horiz-adv-x="339" d="M330 0h-308v583h308v-79h-169v-147h165v-77h-165v-200h169v-80zM221 621h-75l-88 88h117z" />
<glyph unicode="&#xc9;" horiz-adv-x="341" d="M328 0h-308v583h308v-79h-169v-147h165v-77h-165v-200h169v-80zM303 709l-88 -88h-76l46 88h118z" />
<glyph unicode="&#xca;" horiz-adv-x="345" d="M331 0h-308v583h308v-79h-169v-147h165v-77h-165v-200h169v-80zM310 622h-88l-44 52l-43 -52h-87l78 92h105z" />
<glyph unicode="&#xcb;" horiz-adv-x="342" d="M330 0h-308v583h308v-79h-169v-147h165v-77h-165v-200h169v-80zM294 673q0 -16 -13 -26t-29 -10q-17 0 -30 10t-13 26t13 26t30 10q16 0 29 -10t13 -26zM156 673q0 -16 -12.5 -26t-29.5 -10t-30 10t-13 26t13 26t30 10q16 0 29 -10t13 -26z" />
<glyph unicode="&#xcc;" horiz-adv-x="215" d="M191 0h-139v583h139v-583zM171 621h-75l-88 88h118z" />
<glyph unicode="&#xcd;" horiz-adv-x="208" d="M162 0h-139v583h139v-583zM198 709l-88 -88h-75l45 88h118z" />
<glyph unicode="&#xce;" horiz-adv-x="282" d="M211 0h-139v583h139v-583zM272 622h-88l-45 52l-42 -52h-88l79 92h105z" />
<glyph unicode="&#xcf;" horiz-adv-x="246" d="M197 0h-139v583h139v-583zM232 673q0 -16 -13 -26t-29 -10q-17 0 -30 10t-13 26t13 26t30 10q16 0 29 -10t13 -26zM95 673q0 -16 -13 -26t-30 -10q-16 0 -29 10t-13 26t12.5 26t29.5 10q16 0 29.5 -10t13.5 -26z" />
<glyph unicode="&#xd0;" horiz-adv-x="440" d="M414 107q0 -107 -226 -107h-135v260h-33v61h33v263h136q225 0 225 -108v-369zM231 260h-39v-189h19q63 0 63 38v369q0 38 -63 38h-19v-195h39v-61z" />
<glyph unicode="&#xd1;" horiz-adv-x="406" d="M383 1h-139v488q0 37 -41 37t-41 -37v-488h-140v485q0 59 64 90q51 24 117 24q65 0 116 -24q64 -31 64 -90v-485zM330 717q0 -53 -37 -72q-18 -9 -36 -9q-28 0 -70 21q-40 22 -55 22q-20 0 -27 -15q-3 -5 -9 -27h-13q3 80 73 80q29 0 69 -22q40 -21 57 -21q27 0 36 43h12 z" />
<glyph unicode="&#xd2;" horiz-adv-x="401" d="M380 99q0 -59 -64 -90q-49 -25 -116 -25t-116 25q-65 32 -65 90v385q0 58 65 90q49 24 116 24q65 0 116 -24q64 -31 64 -90v-385zM241 96v395q0 36 -41 36t-41 -36v-395q0 -37 41 -37t41 37zM282 621h-75l-88 88h117z" />
<glyph unicode="&#xd3;" horiz-adv-x="401" d="M381 99q0 -59 -64 -90q-49 -25 -116 -25t-116 25q-65 32 -65 90v385q0 58 65 90q49 24 116 24q65 0 116 -24q64 -31 64 -90v-385zM242 96v395q0 36 -41 36t-41 -36v-395q0 -37 41 -37t41 37zM287 709l-88 -88h-76l46 88h118z" />
<glyph unicode="&#xd4;" d="M382 99q0 -59 -64 -90q-49 -25 -116 -25t-116 25q-65 32 -65 90v385q0 58 65 90q49 24 116 24q65 0 116 -24q64 -31 64 -90v-385zM243 96v395q0 36 -41 36t-41 -36v-395q0 -37 41 -37t41 37zM342 622h-88l-44 52l-43 -52h-87l78 92h105z" />
<glyph unicode="&#xd5;" d="M382 99q0 -59 -64 -90q-49 -25 -116 -25t-116 25q-65 32 -65 90v385q0 58 65 90q49 24 116 24q65 0 116 -24q64 -31 64 -90v-385zM243 96v395q0 36 -41 36t-41 -36v-395q0 -37 41 -37t41 37zM330 717q0 -53 -37 -72q-18 -9 -36 -9q-28 0 -70 21q-40 22 -55 22 q-20 0 -27 -15q-3 -5 -9 -27h-13q3 80 73 80q29 0 69 -22q40 -21 57 -21q27 0 36 43h12z" />
<glyph unicode="&#xd6;" horiz-adv-x="403" d="M382 99q0 -59 -64 -90q-49 -25 -116 -25t-116 25q-65 32 -65 90v385q0 58 65 90q49 24 116 24q65 0 116 -24q64 -31 64 -90v-385zM243 96v395q0 36 -41 36t-41 -36v-395q0 -37 41 -37t41 37zM317 673q0 -16 -13 -26t-29 -10q-17 0 -30 10t-13 26t13 26t30 10q16 0 29 -10 t13 -26zM179 673q0 -16 -12.5 -26t-29.5 -10t-30 10t-13 26t13 26t30 10q16 0 29 -10t13 -26z" />
<glyph unicode="&#xd8;" horiz-adv-x="412" d="M386 99q0 -59 -64 -90q-49 -25 -116 -25t-116 25q-65 32 -65 90v385q0 58 65 90q49 24 116 24q65 0 116 -24q64 -31 64 -90v-385zM247 96v233l-82 -184v-49q0 -37 41 -37t41 37zM247 491q0 36 -41 36t-41 -36v-219l82 184v35z" />
<glyph unicode="&#xd9;" horiz-adv-x="402" d="M381 99q0 -59 -64 -90q-49 -25 -116 -25t-116 25q-65 32 -65 90v484h140v-487q0 -37 41 -37t41 37v487h139v-484zM283 621h-75l-88 88h117z" />
<glyph unicode="&#xda;" horiz-adv-x="401" d="M381 99q0 -59 -64 -90q-49 -25 -116 -25t-116 25q-65 32 -65 90v484h140v-487q0 -37 41 -37t41 37v487h139v-484zM287 709l-88 -88h-76l46 88h118z" />
<glyph unicode="&#xdb;" d="M382 99q0 -59 -64 -90q-49 -25 -116 -25t-116 25q-65 32 -65 90v484h140v-487q0 -37 41 -37t41 37v487h139v-484zM342 622h-88l-44 52l-43 -52h-87l78 92h105z" />
<glyph unicode="&#xdc;" d="M382 99q0 -59 -64 -90q-49 -25 -116 -25t-116 25q-65 32 -65 90v484h140v-487q0 -37 41 -37t41 37v487h139v-484zM317 673q0 -16 -13 -26t-29 -10q-17 0 -30 10t-13 26t13 26t30 10q16 0 29 -10t13 -26zM179 673q0 -16 -12.5 -26t-29.5 -10t-30 10t-13 26t13 26t30 10 q16 0 29 -10t13 -26z" />
<glyph unicode="&#xdd;" horiz-adv-x="438" d="M430 583l-143 -364v-219h-143v219l-137 364h137l78 -254l77 254h131zM327 709l-88 -88h-76l46 88h118z" />
<glyph unicode="&#xde;" horiz-adv-x="395" d="M166 0h-139v583h139v-118q43 20 81 20q138 0 138 -114v-152q0 -24 -17 -53q-48 -79 -172 -79h-14q-12 0 -15 1v-87h-1v-1zM253 340q0 73 -45 73q-41 0 -41 -35v-219h4q82 0 82 52v129z" />
<glyph unicode="&#xdf;" horiz-adv-x="824" d="M389 459v-71h-136v66q0 78 -48 78q-42 0 -42 -43v-34q0 -52 59 -102l106 -82q57 -50 57 -95v-80q0 -112 -180 -112q-183 0 -183 145v78h143v-114q0 -36 40 -36q46 0 46 50v46q0 33 -61 82l-106 83q-57 52 -57 102v70q0 111 178 111q90 0 132 -27q52 -33 52 -115zM801 459 v-71h-136v66q0 78 -48 78q-42 0 -42 -43v-34q0 -52 59 -102l106 -82q57 -50 57 -95v-80q0 -112 -180 -112q-183 0 -183 145v78h143v-114q0 -36 40 -36q46 0 46 50v46q0 33 -61 82l-106 83q-57 52 -57 102v70q0 111 178 111q90 0 132 -27q52 -33 52 -115z" />
<glyph unicode="&#xe0;" horiz-adv-x="402" d="M382 1h-139v230h-82v-230h-140v485q0 59 64 90q51 24 117 24q65 0 116 -24q64 -31 64 -90v-485zM243 307v182q0 37 -41 37t-41 -37v-182h82zM243 621h-75l-88 88h117z" />
<glyph unicode="&#xe1;" horiz-adv-x="403" d="M381 1h-139v280h-82v-280h-140v485q0 59 64 90q51 24 117 24q65 0 116 -24q64 -31 64 -90v-485zM242 357v132q0 37 -41 37t-41 -37v-132h82zM316 709l-88 -88h-76l46 88h118z" />
<glyph unicode="&#xe2;" horiz-adv-x="405" d="M382 1h-139v230h-82v-230h-140v485q0 59 64 90q51 24 117 24q65 0 116 -24q64 -31 64 -90v-485zM243 307v182q0 37 -41 37t-41 -37v-182h82zM331 622h-88l-44 52l-43 -52h-87l78 92h105z" />
<glyph unicode="&#xe3;" horiz-adv-x="406" d="M383 1h-139v230h-82v-230h-140v485q0 59 64 90q51 24 117 24q65 0 116 -24q64 -31 64 -90v-485zM244 307v182q0 37 -41 37t-41 -37v-182h82zM330 717q0 -53 -37 -72q-18 -9 -36 -9q-28 0 -70 21q-40 22 -55 22q-20 0 -27 -15q-3 -5 -9 -27h-13q3 80 73 80q29 0 69 -22 q40 -21 57 -21q27 0 36 43h12z" />
<glyph unicode="&#xe4;" horiz-adv-x="405" d="M383 1h-139v230h-82v-230h-140v485q0 59 64 90q51 24 117 24q65 0 116 -24q64 -31 64 -90v-485zM244 307v182q0 37 -41 37t-41 -37v-182h82zM313 673q0 -16 -13 -26t-29 -10q-17 0 -30 10t-13 26t13 26t30 10q16 0 29 -10t13 -26zM175 673q0 -16 -12.5 -26t-29.5 -10 t-30 10t-13 26t13 26t30 10q16 0 29 -10t13 -26z" />
<glyph unicode="&#xe5;" horiz-adv-x="402" d="M381 1h-139v230h-82v-230h-140v485q0 59 64 90q51 24 117 24q65 0 116 -24q64 -31 64 -90v-485zM242 307v182q0 37 -41 37t-41 -37v-182h82zM278 692q0 -30 -23 -50t-53 -20q-31 0 -53.5 20t-22.5 50t22.5 50t53.5 20q30 0 53 -20t23 -50zM250 692q0 19 -14.5 31.5 t-33.5 12.5q-20 0 -34.5 -12.5t-14.5 -31.5t14.5 -32t34.5 -13q19 0 33.5 13t14.5 32z" />
<glyph unicode="&#xe6;" horiz-adv-x="579" d="M556 0h-308v1h-1v260h-81v-260h-140v485q0 59 64 90q51 24 116 24q60 0 99 -16h251v-79h-169v-168h165v-77h-165v-180h169v-80zM247 337v152q0 37 -41 37q-40 0 -40 -37v-152h81z" />
<glyph unicode="&#xe7;" horiz-adv-x="399" d="M264 -66q0 -33 -26 -52.5t-59 -19.5q-16 0 -37 3v17q7 -1 12 -1.5t7 -0.5q18 0 33 12.5t15 31.5q0 29 -34 29q-7 0 -8 -1l20 32q-62 3 -104 25q-64 31 -64 90v385q0 111 181 111q90 0 131 -27q51 -33 51 -115q0 -8 -0.5 -19t-1.5 -25q-1 -5 -1 -13v-11v-17h-140v123 q0 36 -40 36t-40 -36v-395q0 -37 40 -37t40 37v131h140v-128q0 -59 -64 -90q-20 -10 -40.5 -15.5t-42.5 -7.5q32 -15 32 -52z" />
<glyph unicode="&#xe8;" horiz-adv-x="339" d="M328 0h-308v583h308v-79h-169v-147h165v-77h-165v-200h169v-80zM259 621h-75l-88 88h117z" />
<glyph unicode="&#xe9;" horiz-adv-x="340" d="M330 0h-308v583h308v-79h-169v-147h165v-77h-165v-200h169v-80zM255 709l-88 -88h-76l46 88h118z" />
<glyph unicode="&#xea;" horiz-adv-x="345" d="M331 0h-308v583h308v-79h-169v-147h165v-77h-165v-200h169v-80zM310 622h-88l-44 52l-43 -52h-87l78 92h105z" />
<glyph unicode="&#xeb;" horiz-adv-x="342" d="M330 0h-308v583h308v-79h-169v-147h165v-77h-165v-200h169v-80zM294 673q0 -16 -13 -26t-29 -10q-17 0 -30 10t-13 26t13 26t30 10q16 0 29 -10t13 -26zM156 673q0 -16 -12.5 -26t-29.5 -10t-30 10t-13 26t13 26t30 10q16 0 29 -10t13 -26z" />
<glyph unicode="&#xec;" horiz-adv-x="215" d="M191 0h-139v583h139v-583zM171 621h-75l-88 88h118z" />
<glyph unicode="&#xed;" horiz-adv-x="208" d="M162 0h-139v583h139v-583zM198 709l-88 -88h-75l45 88h118z" />
<glyph unicode="&#xee;" horiz-adv-x="282" d="M211 0h-139v583h139v-583zM272 622h-88l-45 52l-42 -52h-88l79 92h105z" />
<glyph unicode="&#xef;" horiz-adv-x="246" d="M197 0h-139v583h139v-583zM232 673q0 -16 -13 -26t-29 -10q-17 0 -30 10t-13 26t13 26t30 10q16 0 29 -10t13 -26zM95 673q0 -16 -13 -26t-30 -10q-16 0 -29 10t-13 26t12.5 26t29.5 10q16 0 29.5 -10t13.5 -26z" />
<glyph unicode="&#xf0;" horiz-adv-x="424" d="M414 107q0 -107 -226 -107h-135v260h-33v61h33v263h136q225 0 225 -108v-369zM231 260h-39v-189h19q63 0 63 38v369q0 38 -63 38h-19v-195h39v-61z" />
<glyph unicode="&#xf1;" horiz-adv-x="406" d="M383 1h-139v488q0 37 -41 37t-41 -37v-488h-140v485q0 59 64 90q51 24 117 24q65 0 116 -24q64 -31 64 -90v-485zM330 717q0 -53 -37 -72q-18 -9 -36 -9q-28 0 -70 21q-40 22 -55 22q-20 0 -27 -15q-3 -5 -9 -27h-13q3 80 73 80q29 0 69 -22q40 -21 57 -21q27 0 36 43h12 z" />
<glyph unicode="&#xf2;" horiz-adv-x="401" d="M380 99q0 -59 -64 -90q-49 -25 -116 -25t-116 25q-65 32 -65 90v385q0 58 65 90q49 24 116 24q65 0 116 -24q64 -31 64 -90v-385zM241 96v395q0 36 -41 36t-41 -36v-395q0 -37 41 -37t41 37zM282 621h-75l-88 88h117z" />
<glyph unicode="&#xf3;" horiz-adv-x="401" d="M381 99q0 -59 -64 -90q-49 -25 -116 -25t-116 25q-65 32 -65 90v385q0 58 65 90q49 24 116 24q65 0 116 -24q64 -31 64 -90v-385zM242 96v395q0 36 -41 36t-41 -36v-395q0 -37 41 -37t41 37zM287 709l-88 -88h-76l46 88h118z" />
<glyph unicode="&#xf4;" d="M382 99q0 -59 -64 -90q-49 -25 -116 -25t-116 25q-65 32 -65 90v385q0 58 65 90q49 24 116 24q65 0 116 -24q64 -31 64 -90v-385zM243 96v395q0 36 -41 36t-41 -36v-395q0 -37 41 -37t41 37zM342 622h-88l-44 52l-43 -52h-87l78 92h105z" />
<glyph unicode="&#xf5;" d="M382 99q0 -59 -64 -90q-49 -25 -116 -25t-116 25q-65 32 -65 90v385q0 58 65 90q49 24 116 24q65 0 116 -24q64 -31 64 -90v-385zM243 96v395q0 36 -41 36t-41 -36v-395q0 -37 41 -37t41 37zM330 717q0 -53 -37 -72q-18 -9 -36 -9q-28 0 -70 21q-40 22 -55 22 q-20 0 -27 -15q-3 -5 -9 -27h-13q3 80 73 80q29 0 69 -22q40 -21 57 -21q27 0 36 43h12z" />
<glyph unicode="&#xf6;" horiz-adv-x="403" d="M382 99q0 -59 -64 -90q-49 -25 -116 -25t-116 25q-65 32 -65 90v385q0 58 65 90q49 24 116 24q65 0 116 -24q64 -31 64 -90v-385zM243 96v395q0 36 -41 36t-41 -36v-395q0 -37 41 -37t41 37zM317 673q0 -16 -13 -26t-29 -10q-17 0 -30 10t-13 26t13 26t30 10q16 0 29 -10 t13 -26zM179 673q0 -16 -12.5 -26t-29.5 -10t-30 10t-13 26t13 26t30 10q16 0 29 -10t13 -26z" />
<glyph unicode="&#xf8;" horiz-adv-x="412" d="M386 99q0 -59 -64 -90q-49 -25 -116 -25t-116 25q-65 32 -65 90v385q0 58 65 90q49 24 116 24q65 0 116 -24q64 -31 64 -90v-385zM247 96v233l-82 -184v-49q0 -37 41 -37t41 37zM247 491q0 36 -41 36t-41 -36v-219l82 184v35z" />
<glyph unicode="&#xf9;" horiz-adv-x="402" d="M381 99q0 -59 -64 -90q-49 -25 -116 -25q-68 0 -117 25q-64 31 -64 90v484h140v-487q0 -37 41 -37t41 37v487h139v-484zM283 621h-75l-88 88h117z" />
<glyph unicode="&#xfa;" horiz-adv-x="401" d="M381 99q0 -59 -64 -90q-49 -25 -116 -25q-68 0 -117 25q-64 31 -64 90v484h140v-487q0 -37 41 -37t41 37v487h139v-484zM287 709l-88 -88h-76l46 88h118z" />
<glyph unicode="&#xfb;" d="M382 99q0 -59 -64 -90q-49 -25 -116 -25q-68 0 -117 25q-64 31 -64 90v484h140v-487q0 -37 41 -37t41 37v487h139v-484zM342 622h-88l-44 52l-43 -52h-87l78 92h105z" />
<glyph unicode="&#xfc;" d="M382 99q0 -59 -64 -90q-49 -25 -116 -25q-68 0 -117 25q-64 31 -64 90v484h140v-487q0 -37 41 -37t41 37v487h139v-484zM317 673q0 -16 -13 -26t-29 -10q-17 0 -30 10t-13 26t13 26t30 10q16 0 29 -10t13 -26zM179 673q0 -16 -12.5 -26t-29.5 -10t-30 10t-13 26t13 26 t30 10q16 0 29 -10t13 -26z" />
<glyph unicode="&#xfd;" horiz-adv-x="438" d="M430 583l-143 -364v-219h-143v219l-137 364h137l78 -254l77 254h131zM327 709l-88 -88h-76l46 88h118z" />
<glyph unicode="&#xfe;" horiz-adv-x="397" d="M166 0h-139v583h139v-118q43 20 81 20q138 0 138 -114v-152q0 -24 -17 -53q-48 -79 -172 -79h-14q-12 0 -15 1v-87h-1v-1zM253 340q0 73 -45 73q-41 0 -41 -35v-219h4q82 0 82 52v129z" />
<glyph unicode="&#xff;" horiz-adv-x="439" d="M431 583l-143 -364v-219h-143v219l-137 364h137l78 -254l77 254h131zM331 673q0 -16 -13 -26t-29 -10q-17 0 -30 10t-13 26t13 26t30 10q16 0 29 -10t13 -26zM193 673q0 -16 -12.5 -26t-29.5 -10t-30 10t-13 26t13 26t30 10q16 0 29 -10t13 -26z" />
<glyph unicode="&#x152;" horiz-adv-x="577" d="M555 0h-253q-39 -16 -95 -16q-68 0 -117 25q-64 31 -64 90v385q0 58 65 90q49 24 116 24q46 0 94 -14h254v-79h-179v-148h175v-77h-175v-200h179v-80zM207 527q-41 0 -41 -36v-395q0 -37 41 -37q34 0 40 25v417q-6 26 -40 26z" />
<glyph unicode="&#x153;" horiz-adv-x="577" d="M555 0h-253q-39 -16 -95 -16q-68 0 -117 25q-64 31 -64 90v385q0 58 65 90q49 24 116 24q50 0 94 -15h254v-79h-179v-147h175v-77h-175v-200h179v-80zM207 527q-41 0 -41 -36v-395q0 -37 41 -37q34 0 40 25v417q-6 26 -40 26z" />
<glyph unicode="&#x160;" d="M71 728h88l44 -52l43 52h87l-78 -92h-105zM389 459v-71h-136v66q0 78 -48 78q-42 0 -42 -43v-34q0 -52 59 -102l106 -82q57 -50 57 -95v-80q0 -112 -180 -112q-183 0 -183 145v78h143v-114q0 -36 40 -36q46 0 46 50v46q0 33 -61 82l-106 83q-57 52 -57 102v70 q0 111 178 111q90 0 132 -27q52 -33 52 -115z" />
<glyph unicode="&#x161;" horiz-adv-x="400" d="M389 459v-71h-136v66q0 78 -48 78q-42 0 -42 -43v-40q0 -46 59 -96l106 -82q57 -50 57 -95v-80q0 -112 -180 -112q-183 0 -183 145v78h143v-114q0 -36 40 -36q46 0 46 50v46q0 33 -61 82l-106 83q-57 52 -57 102v70q0 111 178 111q90 0 132 -27q52 -33 52 -115zM76 714 h88l44 -52l43 52h87l-78 -92h-105z" />
<glyph unicode="&#x178;" horiz-adv-x="439" d="M431 583l-143 -364v-219h-143v219l-137 364h137l78 -254l77 254h131zM357 673q0 -16 -13 -26t-29 -10q-17 0 -30 10t-13 26t13 26t30 10q16 0 29 -10t13 -26zM219 673q0 -16 -12.5 -26t-29.5 -10t-30 10t-13 26t13 26t30 10q16 0 29 -10t13 -26z" />
<glyph unicode="&#x2c6;" horiz-adv-x="296" d="M279 622h-88l-44 52l-43 -52h-87l78 92h105z" />
<glyph unicode="&#x2c7;" horiz-adv-x="292" d="M15 714h88l44 -52l43 52h87l-78 -92h-105z" />
<glyph unicode="&#x2da;" horiz-adv-x="191" d="M171 692q0 -30 -23 -50t-53 -20q-31 0 -53.5 20t-22.5 50t22.5 50t53.5 20q30 0 53 -20t23 -50zM143 692q0 19 -14.5 31.5t-33.5 12.5q-20 0 -34.5 -12.5t-14.5 -31.5t14.5 -32t34.5 -13q19 0 33.5 13t14.5 32z" />
<glyph unicode="&#x2dc;" horiz-adv-x="293" d="M270 717q0 -53 -37 -72q-18 -9 -36 -9q-28 0 -70 21q-40 22 -55 22q-20 0 -27 -15q-3 -5 -9 -27h-13q3 80 73 80q29 0 69 -22q40 -21 57 -21q27 0 36 43h12z" />
<glyph unicode="&#x2013;" horiz-adv-x="317" d="M289 202h-262v62h262v-62z" />
<glyph unicode="&#x2014;" horiz-adv-x="612" d="M585 202h-558v62h558v-62z" />
<glyph unicode="&#x2018;" horiz-adv-x="198" d="M136 774l44 -192h-79l-94 192h129z" />
<glyph unicode="&#x2019;" horiz-adv-x="199" d="M191 774l-95 -192h-79l44 192h130z" />
<glyph unicode="&#x201a;" horiz-adv-x="199" d="M191 109l-95 -192h-79l44 192h130z" />
<glyph unicode="&#x201c;" horiz-adv-x="353" d="M144 774l44 -192h-79l-94 192h129zM287 774l44 -192h-79l-94 192h129z" />
<glyph unicode="&#x201d;" horiz-adv-x="354" d="M196 774l-95 -192h-79l44 192h130zM339 774l-95 -192h-79l44 192h130z" />
<glyph unicode="&#x201e;" horiz-adv-x="354" d="M196 109l-95 -192h-79l44 192h130zM339 109l-95 -192h-79l44 192h130z" />
<glyph unicode="&#x2022;" horiz-adv-x="358" d="M351 362l-93 -83l31 -121l-108 63l-105 -67l27 122l-96 80l124 12l46 116l50 -115z" />
<glyph unicode="&#x2026;" horiz-adv-x="966" d="M153 0h-126v92h126v-92zM545 0h-126v92h126v-92zM937 0h-126v92h126v-92z" />
<glyph unicode="&#x2039;" horiz-adv-x="230" d="M95 302l102 -48v-60l-156 77v59l156 81v-62z" />
<glyph unicode="&#x203a;" horiz-adv-x="230" d="M143 304l-102 47v60l156 -77v-59l-156 -81v62z" />
<glyph unicode="&#x20ac;" horiz-adv-x="466" d="M28 266h48v40h-48v61h48v122q0 111 180 111q120 0 164 -63l-75 -141h-49v100q0 36 -40 36t-40 -36v-129h114l-32 -61h-82v-40h61l-32 -61h-29v-109q0 -37 40 -37t40 37v62h140v-59q0 -115 -180 -115t-180 115v106h-48v61z" />
<glyph unicode="&#x2122;" horiz-adv-x="561" d="M173 484v-223h-59v223h-71v54h199v-54h-69zM448 414l-60 -154l-66 160v-158h-55v277h67l53 -143l52 143h65v-277h-56v152z" />
<glyph unicode="&#x25fc;" horiz-adv-x="585" d="M0 585h585v-585h-585v585z" />
</font>
</defs>
</svg>
